<svg width="206" height="49" viewBox="0 0 206 49" fill="none" xmlns="http://www.w3.org/2000/svg">
<path d="M3.83523 11.0909V46H8.84659V20.7216H9.17045L19.4659 45.9489H23.625L33.9205 20.7386H34.2443V46H39.2557V11.0909H32.8636L21.75 38.2273H21.3409L10.2273 11.0909H3.83523Z" fill="#BBBBBB"/>
<path d="M88.8864 11.0909H83.1932L95.7557 46H101.841L114.403 11.0909H108.71L98.9943 39.5227H98.6023L88.8864 11.0909ZM119.445 46H141.536V41.4659H124.712V30.7784H140.189V26.2614H124.712V15.625H141.331V11.0909H119.445V46ZM151.315 46.3239C153.173 46.3239 154.724 44.8068 154.724 42.9148C154.724 41.0568 153.173 39.5227 151.315 39.5227C149.44 39.5227 147.906 41.0568 147.906 42.9148C147.906 44.8068 149.44 46.3239 151.315 46.3239ZM167.227 11.0909H161.96V46H167.227V11.0909ZM173.176 15.625H184.051V46H189.301V15.625H200.193V11.0909H173.176V15.625Z" fill="#BBBBBB"/>
<ellipse cx="62.5" cy="28.7977" rx="19.5" ry="19.7977" fill="url(#paint0_linear)"/>
<rect x="65.6761" y="28.6052" width="2.67939" height="15.5719" rx="1.33969" transform="rotate(-140 65.6761 28.6052)" fill="white"/>
<rect x="51.6022" y="43.4907" width="2.67939" height="15.5719" rx="1.33969" transform="rotate(-140 51.6022 43.4907)" fill="#00D881"/>
<rect x="61.6116" y="26.8831" width="2.67939" height="15.5719" rx="1.33969" transform="rotate(140 61.6116 26.8831)" fill="white"/>
<rect x="75.6039" y="41.7684" width="2.67939" height="15.5719" rx="1.33969" transform="rotate(140 75.6039 41.7684)" fill="#00D881"/>
<circle cx="62.5305" cy="20.4617" r="2.53053" fill="#00D881"/>
<defs>
<linearGradient id="paint0_linear" x1="76.0458" y1="14.6565" x2="54.0153" y2="46.5114" gradientUnits="userSpaceOnUse">
<stop offset="0.494792" stop-color="#E531DB"/>
<stop offset="0.921875" stop-color="#5D1FAA"/>
</linearGradient>
</defs>
</svg>
